<svg width="58" height="55.99999999999999" xmlns="http://www.w3.org/2000/svg">
 <title/>
 <desc/>

 <g>
  <title>background</title>
  <rect fill="none" id="canvas_background" height="402" width="582" y="-1" x="-1"/>
 </g>
 <g>
  <title>Layer 1</title>
  <path id="Fill-345" fill="#ffffff" d="m38,34.9999c0,-2.548 -0.644,-4.023 -1.335,-4.872c-0.622,-0.764 -1.598,-1.163 -2.582,-1.1c-1.058,0.068 -1.771,0.249 -2.242,0.437c-0.904,0.362 -1.867,0.535 -2.841,0.535c-0.974,0 -1.937,-0.173 -2.841,-0.535c-0.473,-0.188 -1.19,-0.371 -2.256,-0.438c-0.887,-0.056 -1.788,0.249 -2.393,0.9c-0.753,0.81 -1.51,2.311 -1.51,5.073l0,0.201c0,2.298 0.605,4.548 1.701,6.569c1.089,2.008 2.299,4.789 2.299,7.23c0,0 -0.719,7 5,7c5.719,0 5,-7 5,-7c0,-2.441 1.21,-5.222 2.299,-7.23c1.096,-2.021 1.701,-4.271 1.701,-6.569l0,-0.201z"/>
  <path id="Fill-346" fill="#e5e5e5" d="m8,30.0734c0,0 1.687,2.303 2.531,4.68c0.908,2.557 2.759,4.718 5.313,5.632c1.409,0.505 4.127,0.747 6.156,0.615l-1,-3.927l-0.464,-0.941c-1.49,-3.024 -4.28,-5.274 -7.6,-5.863c-1.389,-0.247 -3.03,-0.352 -4.936,-0.196"/>
  <path id="Fill-347" fill="#7f7f7f" d="m20.999,39.9999c-0.175,0 -0.353,-0.046 -0.514,-0.143l-5,-3c-0.473,-0.284 -0.627,-0.898 -0.342,-1.372c0.284,-0.473 0.897,-0.628 1.372,-0.342l5,3c0.473,0.284 0.627,0.898 0.342,1.372c-0.187,0.312 -0.518,0.485 -0.858,0.485"/>
  <path id="Fill-348" fill="#e5e5e5" d="m50,30.0734c0,0 -1.687,2.303 -2.531,4.68c-0.908,2.557 -2.759,4.718 -5.313,5.632c-1.409,0.505 -4.127,0.747 -6.156,0.615l1,-3.927l0.464,-0.941c1.49,-3.024 4.28,-5.274 7.6,-5.863c1.389,-0.247 3.03,-0.352 4.936,-0.196"/>
  <path id="Fill-349" fill="#7f7f7f" d="m37.001,39.9999c-0.34,0 -0.671,-0.173 -0.858,-0.485c-0.285,-0.474 -0.131,-1.088 0.342,-1.372l5,-3c0.475,-0.286 1.088,-0.131 1.372,0.342c0.285,0.474 0.131,1.088 -0.342,1.372l-5,3c-0.161,0.097 -0.339,0.143 -0.514,0.143"/>
  <path id="Fill-350" fill="#7f7f7f" d="m56,18.9999l-3,0c2.703,-2.036 4.348,-4.3 4.881,-6.834c0.307,-1.46 0.017,-2.87 -0.838,-4.085c-0.507,-0.925 -0.066,-3.353 0.249,-4.798c0.153,-0.707 -0.064,-1.439 -0.575,-1.95c-1.196,-1.196 -3.28,-0.591 -3.584,1.073c-0.459,2.509 -0.2,5.515 0.406,6.749c-0.642,-0.504 -1.394,-0.965 -2.181,-1.317c-1.326,-0.594 -2.819,0.427 -2.819,1.88l0,0.067c0,0.732 0.405,1.386 1.028,1.769c0.813,0.5 1.829,1.404 2.732,2.327c-1.445,1.484 -3.724,3.169 -6.517,4.763c-0.585,0.334 -1.28,0.535 -1.943,0.704c-0.606,0.153 -1.839,0.652 -1.839,0.652l0,-8c-1.076,0 -1.71,0.612 -2.423,1.443c-2.096,2.441 -1.499,7.989 -1.225,9.861c-1.222,1.455 -3.028,3.842 -4.412,5.738c0.05,-0.004 0.091,-0.011 0.143,-0.014c0.984,-0.063 1.96,0.336 2.582,1.1c0.171,0.21 0.339,0.459 0.495,0.753c2.091,-3.181 5.44,-7.337 7.312,-7.811c0.169,-0.043 0.528,-0.07 0.528,-0.07l11,0c1.105,0 2,-0.896 2,-2c0,-1.104 -0.895,-2 -2,-2"/>
  <path id="Fill-351" fill="#7f7f7f" d="m21.5099,29.9267c0.605,-0.651 1.506,-0.956 2.393,-0.9c0.068,0.005 0.123,0.013 0.188,0.018c-1.424,-1.929 -3.243,-4.312 -4.443,-5.74c0.274,-1.873 0.871,-7.421 -1.224,-9.862c-0.714,-0.83 -1.348,-1.443 -2.424,-1.443l0,8c0,0 -1.233,-0.498 -1.839,-0.652c-0.663,-0.169 -1.358,-0.37 -1.943,-0.704c-2.793,-1.594 -5.071,-3.278 -6.517,-4.763c0.903,-0.923 1.919,-1.827 2.732,-2.327c0.623,-0.383 1.029,-1.037 1.029,-1.769l0,-0.067c0,-1.453 -1.494,-2.474 -2.82,-1.88c-0.787,0.352 -1.539,0.813 -2.18,1.317c0.605,-1.234 0.864,-4.24 0.405,-6.749c-0.304,-1.664 -2.388,-2.268 -3.584,-1.072c-0.511,0.511 -0.728,1.243 -0.575,1.949c0.315,1.445 0.757,3.873 0.249,4.798c-0.855,1.216 -1.145,2.625 -0.838,4.085c0.533,2.534 2.179,4.798 4.881,6.834l-3,0c-1.104,0 -2,0.896 -2,2c0,1.105 0.896,2 2,2l11,0c0,0 0.359,0.027 0.528,0.07c1.835,0.465 5.188,4.567 7.338,7.775c0.203,-0.372 0.422,-0.68 0.644,-0.918"/>
  <path id="Fill-358" fill="#cccccc" d="m31,41.042673l0,14.631c3.525,-1.43 3,-6.631 3,-6.631c0,-2.441 1.21,-5.222 2.299,-7.23c1.096,-2.021 1.701,-4.27 1.701,-6.569l0,-0.201c0,-0.355 -0.015,-0.684 -0.038,-0.998c-3.852,0.021 -6.962,3.142 -6.962,6.998"/>
  <path id="Fill-359" fill="#cccccc" d="m20.0363,34.0017c-0.023,0.313 -0.036,0.645 -0.036,0.998l0,0.201c0,2.299 0.605,4.548 1.701,6.569c1.089,2.009 2.299,4.789 2.299,7.23c0,0 -0.525,5.201 3,6.632l0,-14.632c0,-3.857 -3.112,-6.978 -6.964,-6.998"/>
 </g>
</svg>