<?xml version="1.0" ?><svg viewBox="0 0 24 24" xmlns="http://www.w3.org/2000/svg"><title/><g id="Expand"><path d="M20,7V5.4141L13.4141,12,20,18.5859V17a1,1,0,0,1,2,0v4a1.0031,1.0031,0,0,1-1,1H17a1,1,0,0,1,0-2h1.5859L12,13.4141,5.4141,20H7a1,1,0,0,1,0,2H3a1.0031,1.0031,0,0,1-1-1V17a1,1,0,0,1,2,0v1.5859L10.5859,12,4,5.4141V7A1,1,0,0,1,2,7V3A1.0044,1.0044,0,0,1,3,2H7A1,1,0,0,1,7,4H5.4141L12,10.5859,18.5859,4H17a1,1,0,0,1,0-2h4a1.0044,1.0044,0,0,1,1,1V7a1,1,0,0,1-2,0Z" style="fill:#ff8e31"/></g></svg>