<?xml version="1.0" ?><svg height="58px" version="1.1" viewBox="0 0 58 58" width="58px" xmlns="http://www.w3.org/2000/svg" xmlns:xlink="http://www.w3.org/1999/xlink"><title/><desc/><defs/><g fill="none" fill-rule="evenodd" id="Page-1" stroke="none" stroke-width="1"><g id="Icons" transform="translate(-720.000000, -685.000000)"><g id="36--Write-Document--(file,-folder,-document,-write)" transform="translate(720.000000, 685.000000)"><path d="M20.6514,43 C22.6924,44.65 24.0004,47.171 24.0004,50 C24.0004,53.488 22.0114,56.506 19.1114,58 L50.5004,58 C54.6424,58 58.0004,54.642 58.0004,50.5 C58.0004,46.358 54.6424,43 50.5004,43 L20.6514,43 Z" fill="#D6D1BB" id="Fill-159"/><path d="M50.5,43 L47.5,43 C51.643,43 55,46.358 55,50.5 C55,54.642 51.643,58 47.5,58 L50.5,58 C54.643,58 58,54.642 58,50.5 C58,46.358 54.643,43 50.5,43" fill="#A19D8C" id="Fill-160"/><path d="M10,8 L10,5 C10,2.25 7.75,0 5,0 C2.25,0 0,2.25 0,5 L0,8 L10,8 Z" fill="#D6D1BB" id="Fill-161"/><path d="M6.5,0.2568 C6.023,0.1048 5.525,-0.0002 5,-0.0002 C2.25,-0.0002 0,2.2498 0,4.9998 L0,7.9998 L3,7.9998 L3,4.9998 C3,2.7758 4.481,0.9008 6.5,0.2568" fill="#E6E3D6" id="Fill-162"/><path d="M51,16 L46.739,8.783 L46.738,8.782 L49.608,5.913 L50.751,4.77 C49.979,2.02 47.459,0 44.461,0 L6,0 L6,0.102 C8.275,0.568 10,2.592 10,5 L10,51.734 C10,55.195 12.805,58 16.266,58 L19.111,58 C22.012,56.506 24,53.488 24,50 C24,47.171 22.692,44.65 20.651,43 C20.651,43 50.834,43.014 51,43.025 L51,16 Z" fill="#F0EDE0" id="Fill-163"/><path d="M29,28 L17,28 C16.447,28 16,27.552 16,27 C16,26.448 16.447,26 17,26 L29,26 C29.553,26 30,26.448 30,27 C30,27.552 29.553,28 29,28" fill="#D6D1BB" id="Fill-854"/><path d="M29,33 L24,33 C23.447,33 23,32.552 23,32 C23,31.448 23.447,31 24,31 L29,31 C29.553,31 30,31.448 30,32 C30,32.552 29.553,33 29,33" fill="#D6D1BB" id="Fill-855"/><path d="M19,33 L17,33 C16.447,33 16,32.552 16,32 C16,31.448 16.447,31 17,31 L19,31 C19.553,31 20,31.448 20,32 C20,32.552 19.553,33 19,33" fill="#D6D1BB" id="Fill-856"/><path d="M27,18 L17,18 C16.447,18 16,17.552 16,17 C16,16.448 16.447,16 17,16 L27,16 C27.553,16 28,16.448 28,17 C28,17.552 27.553,18 27,18" fill="#D6D1BB" id="Fill-857"/><path d="M27,23 L24,23 C23.447,23 23,22.552 23,22 C23,21.448 23.447,21 24,21 L27,21 C27.553,21 28,21.448 28,22 C28,22.552 27.553,23 27,23" fill="#D6D1BB" id="Fill-858"/><path d="M19,23 L17,23 C16.447,23 16,22.552 16,22 C16,21.448 16.447,21 17,21 L19,21 C19.553,21 20,21.448 20,22 C20,22.552 19.553,23 19,23" fill="#D6D1BB" id="Fill-859"/><polygon fill="#F0C419" id="Fill-1048" points="48.5 6.7612 34.152 21.1092 39.174 21.8262 39.892 26.8482 54.239 12.5002"/><path d="M54.2393,12.5 L48.5003,6.761 L51.3693,3.892 C52.5573,2.703 54.4853,2.703 55.6743,3.892 L57.1083,5.326 C58.2973,6.515 58.2973,8.442 57.1083,9.63 L54.2393,12.5 Z" fill="#D75D72" id="Fill-1049"/><path d="M38,24 C37.744,24 37.488,23.902 37.293,23.707 C36.902,23.316 36.902,22.684 37.293,22.293 L47.793,11.793 C48.184,11.402 48.816,11.402 49.207,11.793 C49.598,12.184 49.598,12.816 49.207,13.207 L38.707,23.707 C38.512,23.902 38.256,24 38,24" fill="#876E0E" id="Fill-1050"/><polygon fill="#B49313" id="Fill-1051" points="51.3691 15.3696 45.6301 9.6306 48.5001 6.7616 54.2391 12.4996"/><polygon fill="#F9EBB0" id="Fill-1052" points="39.1738 21.8262 34.1528 21.1092 33.4358 27.5652 39.8918 26.8482"/><path d="M32,30 C31.744,30 31.488,29.902 31.293,29.707 C30.902,29.316 30.902,28.684 31.293,28.293 L33.293,26.293 C33.684,25.902 34.316,25.902 34.707,26.293 C35.098,26.684 35.098,27.316 34.707,27.707 L32.707,29.707 C32.512,29.902 32.256,30 32,30" fill="#2A2F3A" id="Fill-1053"/></g></g></g></svg>