<?xml version="1.0" ?><svg height="58px" version="1.1" viewBox="0 0 48 58" width="48px" xmlns="http://www.w3.org/2000/svg" xmlns:xlink="http://www.w3.org/1999/xlink"><title/><desc/><defs/><g fill="none" fill-rule="evenodd" id="Page-1" stroke="none" stroke-width="1"><g id="Leisure---Flat---021---Playing-Card"><rect fill="#E6E7E8" fill-rule="nonzero" height="58" id="Rectangle-path" rx="2" width="48" x="0" y="0"/><path d="M32.42,33.92 C30.6222318,35.4657923 28.0382523,35.6911861 26,34.48 L26,37.28 C26.4087006,37.9130799 26.9267728,38.4683991 27.53,38.92 C27.8438608,39.1975137 28.0164167,39.6013678 28,40.02 L28,40.5 C28.0600444,41.1186811 27.6167718,41.6727719 27,41.75 L21,41.75 C20.3832282,41.6727719 19.9399556,41.1186811 20,40.5 L20,40.02 C19.9835833,39.6013678 20.1561392,39.1975137 20.47,38.92 C21.0732272,38.4683991 21.5912994,37.9130799 22,37.28 L22,34.48 C19.9617477,35.6911861 17.3777682,35.4657923 15.58,33.92 C13.47,31.95 13.47,28.03 15.58,24.1 C17.05,21.16 20.84,18.21 24,16.25 C27.16,18.21 30.95,21.16 32.42,24.1 C34.53,28.03 34.53,31.95 32.42,33.92 Z" fill="#35495E" id="Shape"/><path d="M9.52631,15.47949 C8.89832013,14.45989 8.03116799,13.6088087 7,13 C5.96880558,13.6087743 5.10164594,14.4598629 4.47369,15.47949 C3.8421,16.71924 3.8421,17.95898 4.47369,18.57886 C4.88453136,18.9576808 5.4651689,19.0907933 6,18.92877 L6,21 C6,21.5522847 6.44771525,22 7,22 C7.55228475,22 8,21.5522847 8,21 L8,18.92877 C8.5348311,19.0907933 9.11546864,18.9576808 9.52631,18.57886 C10.1579,17.959 10.1579,16.71924 9.52631,15.47949 Z" fill="#35495E" id="Shape"/><path d="M43.52631,38.42114 C43.1154686,38.0423192 42.5348311,37.9092067 42,38.07123 L42,36 C42,35.4477153 41.5522847,35 41,35 C40.4477153,35 40,35.4477153 40,36 L40,38.07117 C39.465153,37.9091745 38.8845154,38.0423212 38.47369,38.42117 C37.8421,39.04104 37.8421,40.28079 38.47369,41.52054 C39.1016498,42.5401561 39.9688091,43.3912341 41,44 C42.031168,43.3911913 42.8983201,42.54011 43.52631,41.52051 C44.1579,40.28076 44.1579,39.041 43.52631,38.42114 Z" fill="#35495E" id="Shape"/><path d="M8.5459,3.67578 C8.40739931,3.27158024 8.02737027,3.00004712 7.6001,3 L6.3999,3 C5.97262973,3.00004712 5.59260069,3.27158024 5.4541,3.67578 L3.0542,10.67578 C2.87639883,11.1977605 3.15477613,11.7651466 3.67640989,11.9439625 C4.19804366,12.1227784 4.76597,11.845505 4.9458,11.32422 L5.39984,10 L8.60016,10 L9.05416,11.32422 C9.16948487,11.6627855 9.45687849,11.9139597 9.8078369,11.9829132 C10.1587953,12.0518667 10.5198552,11.9280955 10.7547004,11.6583287 C10.9895456,11.3885618 11.0624008,11.0138944 10.94576,10.67578 L8.5459,3.67578 Z M6.08557,8 L7,5.333 L7.91443,8 L6.08557,8 Z" fill="#35495E" fill-rule="nonzero" id="Shape"/><path d="M44.32422,46.0542 C44.0734009,45.9676172 43.7984231,45.9845173 43.5600945,46.1011633 C43.3217658,46.2178092 43.1397221,46.4245904 43.05422,46.67578 L42.60016,48 L39.39984,48 L38.94584,46.67578 C38.8305151,46.3372145 38.5431215,46.0860403 38.1921631,46.0170868 C37.8412047,45.9481333 37.4801448,46.0719045 37.2452996,46.3416713 C37.0104544,46.6114382 36.9375992,46.9861056 37.05424,47.32422 L39.45414,54.32422 C39.5926359,54.7284058 39.9726444,54.9999358 40.3999,55 L41.6001,55 C42.0273703,54.9999529 42.4073993,54.7284198 42.5459,54.32422 L44.9458,47.32422 C45.0318407,47.07338 45.0146854,46.798631 44.8981098,46.5604423 C44.7815342,46.3222536 44.5750924,46.1401462 44.32422,46.0542 Z M41,52.667 L40.08557,50 L41.91443,50 L41,52.667 Z" fill="#35495E" fill-rule="nonzero" id="Shape"/></g></g></svg>