<?xml version="1.0" ?><svg height="58px" version="1.1" viewBox="0 0 58 58" width="58px" xmlns="http://www.w3.org/2000/svg" xmlns:xlink="http://www.w3.org/1999/xlink"><title/><desc/><defs/><g fill="none" fill-rule="evenodd" id="Page-1" stroke="none" stroke-width="1"><g id="Leisure---Flat---001---Playing-Cards" transform="translate(-1.000000, -1.000000)"><path d="M30.72,54.97 L44.06,58.54 C44.5719233,58.6795747 45.1183718,58.6092338 45.5782592,58.3445639 C46.0381466,58.079894 46.3734967,57.6427509 46.51,57.13 L58.93,10.77 C59.068653,10.2581071 58.9979051,9.71208013 58.7333704,9.25242763 C58.4688357,8.79277514 58.0322615,8.45728497 57.52,8.32 L30.47,1.07 C29.6959189,0.860595527 28.8718068,1.13661393 28.38,1.77 L30.72,54.97 Z" fill="#ECF0F1" fill-rule="nonzero" id="Shape"/><path d="M37.35,22.9 C37.9085982,23.695919 38.5270566,24.4480982 39.2,25.15 C41.1,24.59 43.45,23.61 44.61,22.32 C46.23,20.61 46.76,18.62 45.95,17.33 C45.4472462,16.6155135 44.6591586,16.1543849 43.7899852,16.0661244 C42.9208118,15.977864 42.0561158,16.2711603 41.42,16.87 C41.1131684,15.5128047 39.8690247,14.5771734 38.4799873,14.6590274 C37.09095,14.7408813 35.9653063,15.8161608 35.82,17.2" fill="#CC4B4C" id="Shape"/><path d="M34.31,11.56 C34.9972633,11.2960193 35.6233858,10.8944843 36.15,10.38 C37.12,9.35 37.44,8.16 36.95,7.38 C36.6491662,6.95228842 36.1771298,6.67662513 35.6567928,6.62478344 C35.1364558,6.57294174 34.6193091,6.75005173 34.24,7.11 C34.0368452,6.43619666 33.46534,5.9385594 32.77,5.83" fill="#CC4B4C" id="Shape"/><rect fill="#E6E7E8" fill-rule="nonzero" height="52.0002225" id="Rectangle-path" rx="2" transform="translate(22.735249, 30.193923) rotate(-14.999991) translate(-22.735249, -30.193923) " width="32.0001369" x="6.7351805" y="4.19381155"/><path d="M21.737,26.46875 C22.1137589,25.2145794 23.0164169,24.1857344 24.2109082,23.649002 C25.4053995,23.1122695 26.7740651,23.1205186 27.962,23.67161 C29.99,24.73261 30.79215,27.72632 29.96744,31.156 C29.43027,33.70646 27.10365,36.7364 25.0645,38.88714 C22.22317,38.04414 18.69328,36.58343 16.95286,34.64325 C14.52386,32.0854 13.7217,29.09164 14.94742,27.15886 C15.7006554,26.0876321 16.8818301,25.3961542 18.1846566,25.2637316 C19.4874832,25.131309 20.7836313,25.5709856 21.737,26.46875 Z" fill="#CC4B4C" id="Shape"/><path d="M8.76286,12.04925 C8.91356325,11.5475814 9.27462614,11.1360429 9.75242257,10.9213492 C10.230219,10.7066555 10.7776854,10.7099542 11.25286,10.93039 C12.06405,11.35477 12.38492,12.55228 12.05504,13.92415 C11.6617383,15.0987441 10.9886699,16.160063 10.09386,17.01661 C8.89065984,16.7222258 7.77710673,16.1396341 6.8492,15.31906 C5.8776,14.29592 5.55673,13.09842 6.04702,12.3253 C6.34831353,11.8968059 6.82078452,11.6202121 7.34191709,11.5672419 C7.86304966,11.5142717 8.38151117,11.6901427 8.76286,12.04925 Z" fill="#CC4B4C" id="Shape"/><path d="M35.59826,44.19923 C35.7489633,43.6975614 36.1100261,43.2860229 36.5878226,43.0713292 C37.065619,42.8566355 37.6130854,42.8599342 38.08826,43.08037 C38.89945,43.50475 39.22032,44.70226 38.89043,46.07413 C38.4971283,47.2487241 37.8240599,48.310043 36.92925,49.16659 C35.7260496,48.8721926 34.6124997,48.2895871 33.6846,47.469 C32.713,46.44586 32.39213,45.24836 32.88243,44.47524 C33.18373,44.046755 33.6562021,43.7701715 34.1773317,43.717209 C34.6984613,43.6642466 35.2169169,43.8401221 35.59826,44.19923 L35.59826,44.19923 Z" fill="#CC4B4C" id="Shape"/></g></g></svg>